<?xml version="1.0" encoding="UTF-8" standalone="no"?>
<!-- Created with Inkscape (http://www.inkscape.org/) -->

<svg
   xmlns:dc="http://purl.org/dc/elements/1.1/"
   xmlns:cc="http://creativecommons.org/ns#"
   xmlns:rdf="http://www.w3.org/1999/02/22-rdf-syntax-ns#"
   xmlns:svg="http://www.w3.org/2000/svg"
   xmlns="http://www.w3.org/2000/svg"
   xmlns:sodipodi="http://sodipodi.sourceforge.net/DTD/sodipodi-0.dtd"
   xmlns:inkscape="http://www.inkscape.org/namespaces/inkscape"
   width="128"
   height="128"
   id="svg2"
   version="1.1"
   inkscape:version="0.48.1 "
   sodipodi:docname="primordial_creature.svg">
  <defs
     id="defs4" />
  <sodipodi:namedview
     id="base"
     pagecolor="#ffffff"
     bordercolor="#666666"
     borderopacity="1.0"
     inkscape:pageopacity="0.0"
     inkscape:pageshadow="2"
     inkscape:zoom="0.24748737"
     inkscape:cx="-2294.0676"
     inkscape:cy="-306.34624"
     inkscape:document-units="px"
     inkscape:current-layer="layer1"
     showgrid="false"
     inkscape:window-width="1920"
     inkscape:window-height="1005"
     inkscape:window-x="-9"
     inkscape:window-y="-9"
     inkscape:window-maximized="1" />
  <metadata
     id="metadata7">
    <rdf:RDF>
      <cc:Work
         rdf:about="">
        <dc:format>image/svg+xml</dc:format>
        <dc:type
           rdf:resource="http://purl.org/dc/dcmitype/StillImage" />
        <dc:title></dc:title>
      </cc:Work>
    </rdf:RDF>
  </metadata>
  <g
     inkscape:label="Layer 1"
     inkscape:groupmode="layer"
     id="layer1"
     transform="translate(0,-924.36218)">
    <path
       style="fill:#000000"
       d="m 52.909366,924.70481 c -91.010896,171.93059 -45.5054485,85.96529 0,0 z M 47.71112,1049.2408 C 25.363727,1043.6729 10.520139,1027.7667 5.6742991,1004.1945 -6.7478521,937.30282 75.560835,908.67142 112.10987,943.88906 c 7.74387,7.98374 11.7838,15.87194 13.78955,26.92499 5.09807,28.09364 -11.50315,53.73025 -32.884778,50.78235 -6.73173,-0.9279 -11.252149,-4.2609 -12.168921,-8.9722 -1.024104,-5.263 -4.259966,-5.0419 -7.770184,0.531 -7.017712,11.1413 -23.144881,11.6759 -31.839366,1.0559 -9.860006,-12.0442 -6.349312,-40.70906 6.394276,-52.20937 8.44226,-7.61866 21.048107,-8.36338 27.888316,-1.64762 3.68472,3.61773 3.829138,3.64665 5.629373,1.12743 1.016202,-1.42206 1.847625,-3.07037 1.847625,-3.66297 0,-0.59256 2.122306,-1.0774 4.716252,-1.0774 l 4.716253,0 -0.853261,6.99292 c -0.469282,3.8461 -1.205352,14.78502 -1.635705,24.3087 -0.743747,16.45931 -0.641717,17.49701 2.062742,20.97881 3.870716,4.9834 9.031628,4.8458 14.839158,-0.3951 2.47318,-2.2318 5.5405,-6.8672 6.81626,-10.30072 3.10551,-8.35784 3.10023,-24.02886 -0.0122,-33.27506 -3.33372,-9.90824 -15.551731,-14.15348 -25.823258,-18.95947 -7.37069,-3.44867 -5.414511,-4.17537 -18.301368,-4.20707 -11.971383,-0.0294 -17.250837,3.3206 -23.593097,5.93374 -9.497374,3.91309 -14.706587,13.05515 -19.445495,23.16516 -7.199391,15.35915 -8.505857,27.48725 -1.394543,42.70262 4.261192,9.1172 12.240577,17.5927 21.791791,21.3428 10.754222,4.2223 18.344229,2.7803 32.726181,1.9455 9.459208,-6.5677 31.121599,-3.3029 31.472009,-2.9426 1.32062,1.3574 3.60271,11.6045 1.87555,13.0778 -5.66464,4.832 -51.39576,5.5817 -65.242551,2.1316 z m 18.013345,-48.1246 c 5.540845,-3.80042 7.254397,-13.74618 4.177469,-19.71916 -1.961902,-3.80847 -7.773147,-6.63705 -11.783732,-5.13082 -4.77984,1.79513 -6.285586,8.74884 -6.546582,13.84798 -0.167119,3.26505 0.75478,7.15368 3.264625,9.24871 2.822167,2.35579 7.856629,3.83259 10.88822,1.75329 z"
       id="path3003"
       inkscape:connector-curvature="0"
       sodipodi:nodetypes="cccccccccccccccccccccccccccccccccaaaaaa" />
  </g>
</svg>
