<?xml version="1.0" encoding="UTF-8" standalone="no"?>
<!-- Created with Inkscape (http://www.inkscape.org/) -->

<svg
   xmlns:osb="http://www.openswatchbook.org/uri/2009/osb"
   xmlns:dc="http://purl.org/dc/elements/1.1/"
   xmlns:cc="http://creativecommons.org/ns#"
   xmlns:rdf="http://www.w3.org/1999/02/22-rdf-syntax-ns#"
   xmlns:svg="http://www.w3.org/2000/svg"
   xmlns="http://www.w3.org/2000/svg"
   xmlns:xlink="http://www.w3.org/1999/xlink"
   xmlns:sodipodi="http://sodipodi.sourceforge.net/DTD/sodipodi-0.dtd"
   xmlns:inkscape="http://www.inkscape.org/namespaces/inkscape"
   width="128"
   height="128"
   id="svg3780"
   version="1.1"
   inkscape:version="0.48.1 "
   sodipodi:docname="New document 1">
  <defs
     id="defs3782">
    <linearGradient
       id="linearGradient4558"
       osb:paint="solid">
      <stop
         style="stop-color:#ff0000;stop-opacity:1;"
         offset="0"
         id="stop4560" />
    </linearGradient>
    <linearGradient
       inkscape:collect="always"
       xlink:href="#linearGradient4558"
       id="linearGradient4562"
       x1="10.714286"
       y1="86.75"
       x2="34.642858"
       y2="86.75"
       gradientUnits="userSpaceOnUse" />
  </defs>
  <sodipodi:namedview
     id="base"
     pagecolor="#ffffff"
     bordercolor="#666666"
     borderopacity="1.0"
     inkscape:pageopacity="0.0"
     inkscape:pageshadow="2"
     inkscape:zoom="5.6"
     inkscape:cx="9.6928977"
     inkscape:cy="65.845202"
     inkscape:document-units="px"
     inkscape:current-layer="layer1"
     showgrid="false"
     inkscape:window-width="1920"
     inkscape:window-height="1005"
     inkscape:window-x="-9"
     inkscape:window-y="-9"
     inkscape:window-maximized="1" />
  <metadata
     id="metadata3785">
    <rdf:RDF>
      <cc:Work
         rdf:about="">
        <dc:format>image/svg+xml</dc:format>
        <dc:type
           rdf:resource="http://purl.org/dc/dcmitype/StillImage" />
        <dc:title></dc:title>
      </cc:Work>
    </rdf:RDF>
  </metadata>
  <g
     inkscape:label="Layer 1"
     inkscape:groupmode="layer"
     id="layer1"
     transform="translate(0,-924.36218)">
    <g
       id="g4805"
       transform="matrix(0.94795166,0.94795166,-0.94795166,0.94795166,933.97808,-15.154584)">
      <path
         sodipodi:nodetypes="ccccccccccccccccccccccc"
         inkscape:connector-curvature="0"
         d="m 70.089286,1047.0943 0,0 3.214286,-1.9643 0.178572,-2.8572 -1e-6,-17.8571 14.464286,-0.7142 8.035715,-5.7143 -7.678572,2.1428 -11.785714,-0.8928 -0.892857,-76.07144 -5.49107,-18.34822 -5.49107,18.4375 -0.892857,76.07146 -11.785714,0.8928 -7.678572,-2.1428 8.035715,5.7143 15.178571,0.5356 0.357143,17.5 -0.892857,3.5715 3.214286,1.7857 0,0 -0.04465,-0.045 z"
         style="fill:#646464;fill-opacity:1;stroke:#000000;stroke-width:1px;stroke-linecap:butt;stroke-linejoin:miter;stroke-opacity:1"
         id="path4778-2" />
      <path
         transform="translate(0.89285715,923.82647)"
         d="m 74.285711,122.55357 c 0,2.51487 -2.038703,4.55357 -4.553571,4.55357 -2.514868,0 -4.553572,-2.0387 -4.553572,-4.55357 0,-2.51486 2.038704,-4.55357 4.553572,-4.55357 2.514868,0 4.553571,2.03871 4.553571,4.55357 z"
         sodipodi:ry="4.5535712"
         sodipodi:rx="4.5535712"
         sodipodi:cy="122.55357"
         sodipodi:cx="69.73214"
         id="path4799"
         style="fill:#c8c8c8;fill-opacity:1;stroke:#000000;stroke-width:1;stroke-miterlimit:4;stroke-opacity:1;stroke-dasharray:none"
         sodipodi:type="arc" />
      <path
         transform="translate(0,924.36218)"
         inkscape:connector-curvature="0"
         id="path4801"
         d="m 70,2.1071426 0,91.9642854 -6.25,0 12.5,0"
         style="fill:none;stroke:#000000;stroke-width:1px;stroke-linecap:butt;stroke-linejoin:miter;stroke-opacity:1" />
    </g>
  </g>
</svg>
