<?xml version="1.0" encoding="UTF-8" standalone="no"?>
<!-- Created with Inkscape (http://www.inkscape.org/) -->

<svg
   xmlns:osb="http://www.openswatchbook.org/uri/2009/osb"
   xmlns:dc="http://purl.org/dc/elements/1.1/"
   xmlns:cc="http://creativecommons.org/ns#"
   xmlns:rdf="http://www.w3.org/1999/02/22-rdf-syntax-ns#"
   xmlns:svg="http://www.w3.org/2000/svg"
   xmlns="http://www.w3.org/2000/svg"
   xmlns:xlink="http://www.w3.org/1999/xlink"
   xmlns:sodipodi="http://sodipodi.sourceforge.net/DTD/sodipodi-0.dtd"
   xmlns:inkscape="http://www.inkscape.org/namespaces/inkscape"
   width="128"
   height="128"
   id="svg3780"
   version="1.1"
   inkscape:version="0.48.1 "
   sodipodi:docname="sword.svg"
   inkscape:export-filename="C:\Users\Eric\Documents\Aptana Studio 3 Workspace\jsrogue\assets\images\sprites\items\sword.png"
   inkscape:export-xdpi="90"
   inkscape:export-ydpi="90">
  <defs
     id="defs3782">
    <linearGradient
       id="linearGradient4558"
       osb:paint="solid">
      <stop
         style="stop-color:#ff0000;stop-opacity:1;"
         offset="0"
         id="stop4560" />
    </linearGradient>
    <linearGradient
       inkscape:collect="always"
       xlink:href="#linearGradient4558"
       id="linearGradient4562"
       x1="10.714286"
       y1="86.75"
       x2="34.642858"
       y2="86.75"
       gradientUnits="userSpaceOnUse" />
  </defs>
  <sodipodi:namedview
     id="base"
     pagecolor="#ffffff"
     bordercolor="#666666"
     borderopacity="1.0"
     inkscape:pageopacity="0.0"
     inkscape:pageshadow="2"
     inkscape:zoom="5.6"
     inkscape:cx="9.6928977"
     inkscape:cy="65.845202"
     inkscape:document-units="px"
     inkscape:current-layer="layer1"
     showgrid="false"
     inkscape:window-width="1920"
     inkscape:window-height="1005"
     inkscape:window-x="-9"
     inkscape:window-y="-9"
     inkscape:window-maximized="1" />
  <metadata
     id="metadata3785">
    <rdf:RDF>
      <cc:Work
         rdf:about="">
        <dc:format>image/svg+xml</dc:format>
        <dc:type
           rdf:resource="http://purl.org/dc/dcmitype/StillImage" />
        <dc:title></dc:title>
      </cc:Work>
    </rdf:RDF>
  </metadata>
  <g
     inkscape:label="Layer 1"
     inkscape:groupmode="layer"
     id="layer1"
     transform="translate(0,-924.36218)">
    <path
       style="fill:#005500;fill-opacity:1;stroke:#000000;stroke-width:1;stroke-miterlimit:4;stroke-opacity:1;stroke-dasharray:none"
       id="path2997"
       d="m 9.0674963,13.529743 c 0.2309586,3.93463 0.2623247,7.87756 0.2520452,11.817692 0.028549,6.896643 0.051382,13.793276 0.079526,20.689932 0.053176,5.390881 -0.019547,10.78377 -0.429722,16.160414 -0.1885589,1.882206 -0.3965081,3.762225 -0.6217107,5.640363 -0.1102738,0.919659 -0.2082989,1.842512 -0.3597038,2.756552 -0.8042802,0.349345 -1.5369004,1.007571 -2.4128406,1.048035 -0.3115334,0.01439 -0.033212,-0.623025 -0.036912,-0.934868 -0.021555,-1.816636 0.063086,-3.23844 0.09582,-5.163968 0.027244,-1.602583 0.074607,-7.896741 0.086555,-9.367038 0.00138,-4.759001 0.2114852,-9.513589 0.4763217,-14.263964 0.042731,-0.766464 0.3794004,-6.368008 0.4596128,-7.434602 0.068524,-0.911167 0.1619386,-1.820291 0.2429079,-2.730436 0.5710973,-3.740548 1.6434661,-7.429954 3.3513018,-10.817311 0.260744,-0.517164 0.563744,-1.011918 0.845616,-1.517876 0.934699,-1.563021 2.068747,-3.031017 3.517796,-4.154435 0.887824,-0.688313 1.75528,-1.186527 2.710983,-1.775993 1.214003,-0.694425 3.35894,-2.033359 4.923469,-2.688088 1.284805,-0.537669 2.688172,-0.9450836 4.060715,-1.1863092 0.373741,-0.065685 0.753116,-0.093823 1.129674,-0.1407351 0.364289,0.059775 0.7382,0.076898 1.092866,0.1793253 1.430979,0.413267 2.564,1.648264 3.115928,3.002182 0.188035,0.461261 0.286471,0.954154 0.429706,1.431232 0.312542,1.537753 0.345796,1.537444 0.529575,3.099641 0.05926,0.503715 0.135752,1.007543 0.144913,1.514648 0.0102,0.564906 -0.02501,1.131172 -0.08698,1.692761 -0.189428,1.716815 -0.318531,1.83705 -0.843516,3.478161 -0.247517,0.545823 -0.450831,1.113935 -0.742549,1.637468 -1.136406,2.039458 -3.051496,4.124523 -4.872462,5.585747 -0.370255,0.297109 -0.76673,0.559979 -1.150095,0.839968 -1.1722,0.6147 -2.310645,1.298592 -3.516601,1.844101 -0.681657,0.308346 -2.352996,0.599977 -3.07175,0.705507 -1.60268,0.23531 -3.230199,0.32824 -4.844141,0.449316 -1.995124,0.08858 -3.9978439,0.334404 -5.9954604,0.189689 -0.4965769,-0.03223 -0.9390408,-0.192422 -1.3899704,-0.384959 0,0 2.1729976,-1.456028 2.1729976,-1.456028 l 0,0 c 0.4332983,0.160417 0.8622271,0.30172 1.3290132,0.329408 1.95301,0.137651 3.913644,-0.0567 5.864919,-0.140414 1.608964,-0.119301 3.233084,-0.217405 4.828208,-0.471414 0.525165,-0.08363 1.049692,-0.177503 1.565749,-0.305867 0.500102,-0.124396 0.97394,-0.555503 1.478656,-0.4514 0.310281,0.064 -0.488543,0.403491 -0.732814,0.605236 0.39468,-0.276925 0.802483,-0.53603 1.184039,-0.830776 1.843343,-1.423955 3.777353,-3.471915 4.932255,-5.496326 0.293967,-0.515291 0.502976,-1.074607 0.754464,-1.61191 0.187587,-0.561262 0.418497,-1.109858 0.562759,-1.683784 0.24989,-0.994153 0.395518,-2.35077 0.379399,-3.381132 -0.0079,-0.50458 -0.07709,-1.006554 -0.133662,-1.508014 -0.173495,-1.537758 -0.211511,-1.549242 -0.522739,-3.057278 -0.146021,-0.455588 -0.251648,-0.926159 -0.438063,-1.366763 -0.542138,-1.281379 -1.617238,-2.452076 -3.001808,-2.799569 -0.341295,-0.08566 -0.698627,-0.08484 -1.047941,-0.127264 -0.366773,0.04922 -0.736303,0.08105 -1.100321,0.14766 -1.359543,0.248771 -2.727814,0.66129 -3.996176,1.208844 -0.469542,0.202702 -0.8986,0.496454 -1.37793,0.67478 -0.247203,0.09197 0.449876,-0.275465 0.674814,-0.413198 -0.904687,0.550298 -1.826437,1.078179 -2.674012,1.717313 -1.469848,1.108372 -2.650804,2.543966 -3.612001,4.103027 -0.290981,0.503004 -0.603095,0.994361 -0.872941,1.509012 -1.765348,3.36688 -2.8766219,7.05498 -3.4903629,10.79587 -0.1070899,0.920966 -0.2280221,1.840428 -0.3212698,2.762899 -0.7311071,7.232617 -1.0642662,14.507146 -1.1207722,21.774437 0.00663,3.611571 -0.01258,5.714479 0.080146,9.279838 0.029591,1.137797 0.084846,2.27479 0.1326235,3.411969 0.022134,0.526807 0.044269,1.053686 0.077109,1.579934 0.016792,0.269093 0.2618387,0.614444 0.07176,0.805658 -0.622323,0.626039 -1.5027905,0.926532 -2.2541858,1.389798 0.2863444,-0.907412 0.3849396,-1.862637 0.5173783,-2.802303 0.2653122,-1.882416 0.4942237,-3.769706 0.6867834,-5.660989 0.2218959,-2.429548 0.392397,-4.854243 0.4693707,-7.293594 0.071858,-2.277219 0.065953,-3.658431 0.076782,-5.950463 0.00466,-0.986452 0.00815,-1.97291 0.012232,-2.959364 C 7.4124541,40.162768 7.427129,33.26534 7.3210858,26.368934 7.2106766,22.501792 7.2047022,18.612821 6.7322303,14.768616 c 0,0 2.335266,-1.238873 2.335266,-1.238873 z"
       inkscape:connector-curvature="0"
       transform="translate(0,924.36218)" />
    <path
       style="fill:#005500;fill-opacity:1;stroke:#000000;stroke-width:1;stroke-miterlimit:4;stroke-opacity:1;stroke-dasharray:none"
       id="path2999"
       d="m 41.585868,15.970558 c -0.801395,1.543505 -1.274523,3.230253 -1.754576,4.893452 -0.591171,2.048179 -0.493369,1.73321 -1.028405,3.824818 -0.187901,0.723435 -0.376045,1.446808 -0.563703,2.170307 -0.45983,1.772836 -0.632843,2.394533 -1.038944,4.154992 -0.423711,1.836794 -0.815398,3.680623 -1.242587,5.516785 -0.757173,3.031361 -1.446739,6.074712 -2.025484,9.144902 -0.470926,2.877145 -1.061061,5.730931 -1.634643,8.588733 -0.287658,1.473798 -0.145984,0.776627 -0.421802,2.092164 0,0 -2.296745,1.106878 -2.296745,1.106878 l 0,0 c 0.319376,-1.327685 0.158602,-0.623601 0.476318,-2.113614 0.607815,-2.852007 1.155925,-5.715624 1.648074,-8.58983 0.06794,-0.368103 0.457332,-2.491083 0.537583,-2.873819 0.443964,-2.117367 1.074252,-4.191819 1.535273,-6.305353 0.419137,-1.843062 0.82626,-3.690242 1.26189,-5.529448 0.510318,-2.154535 0.498557,-1.975736 1.056438,-4.166104 0.182895,-0.718085 0.358029,-1.438125 0.537043,-2.157187 0.542461,-2.169531 0.410155,-1.695218 0.993935,-3.817032 0.395122,-1.436115 0.785981,-2.880734 1.311076,-4.276508 0.07397,-0.196632 0.166606,-0.38573 0.249909,-0.578595 0,0 2.39935,-1.085541 2.39935,-1.085541 z"
       inkscape:connector-curvature="0"
       transform="translate(0,924.36218)" />
    <path
       style="fill:#005500;fill-opacity:1;stroke:#000000;stroke-width:1;stroke-miterlimit:4;stroke-opacity:1;stroke-dasharray:none"
       id="path3001"
       d="m 72.596349,22.496741 c -1.767496,-0.16419 -3.538959,-0.145196 -5.308184,-0.03428 -1.624541,0.224079 -2.973813,0.864378 -4.445246,1.53085 -0.186828,0.08462 0.705741,-0.400595 0.558839,-0.257468 -0.45457,0.442893 -0.999465,0.782447 -1.499198,1.17367 -0.522402,0.5285 -1.044803,1.057 -1.567204,1.5855 -1.398106,1.607194 -2.643511,3.346441 -3.658993,5.221029 -0.29079,0.536801 -0.577991,1.078335 -0.805581,1.64483 -0.544547,1.355433 -0.773769,2.515044 -1.118778,3.928379 -0.668976,3.100748 -0.884251,6.267948 -0.955234,9.431185 0.01627,1.211825 0.390155,2.304949 1.112242,3.274526 0.178735,0.239995 0.362003,0.479337 0.575665,0.688841 0.278038,0.272626 0.595919,0.5014 0.893879,0.752099 2.102913,1.574561 4.463239,2.738583 6.771094,3.972395 1.715195,1.016464 3.560852,1.765491 5.458184,2.36127 0.903923,0.278402 0.471371,0.149857 1.296985,0.387885 0,0 -2.144614,1.463902 -2.144614,1.463902 l 0,0 c -0.808522,-0.256214 -0.384471,-0.119564 -1.271727,-0.411271 -1.888828,-0.63172 -3.73894,-1.379208 -5.439668,-2.429122 -2.310337,-1.263313 -4.689403,-2.421641 -6.804017,-4.009457 -0.316819,-0.25717 -0.655541,-0.489489 -0.950456,-0.771509 -0.223969,-0.214176 -0.414112,-0.462245 -0.599438,-0.710616 -0.755411,-1.012386 -1.135699,-2.165116 -1.154635,-3.428459 0.136558,-3.196558 0.377628,-6.396767 1.04747,-9.532585 0.280314,-1.180128 0.627823,-2.825754 1.070183,-3.963956 0.224475,-0.57758 0.521325,-1.125213 0.815874,-1.670399 1.021991,-1.89162 2.27969,-3.643522 3.66439,-5.284756 0.505434,-0.532691 0.97964,-1.096857 1.516302,-1.598072 1.535721,-1.434286 3.219134,-2.309916 5.106065,-3.338624 0.806838,-0.439868 2.247726,-0.972672 3.140463,-1.2149 0.466427,-0.126556 0.946921,-0.193963 1.420381,-0.290945 1.808046,-0.101957 3.618114,-0.113062 5.426756,-0.0061 0,0 -2.151799,1.536203 -2.151799,1.536203 z"
       inkscape:connector-curvature="0"
       transform="translate(0,924.36218)" />
    <path
       style="fill:#005500;fill-opacity:1;stroke:#000000;stroke-width:1;stroke-miterlimit:4;stroke-opacity:1;stroke-dasharray:none"
       id="path3003"
       d="m 101.13285,6.3970445 c -0.7982,2.6306034 -1.133287,5.3659405 -1.480775,8.0833705 -0.109582,0.993019 -0.216887,1.986291 -0.328745,2.979056 -0.320191,2.841756 -0.644999,5.682993 -0.972414,8.523925 -0.393636,3.41552 -0.639563,5.704211 -1.150414,9.094622 -0.214583,1.424146 -0.470175,2.84181 -0.705263,4.262715 -1.772026,8.406323 -4.163444,16.662285 -6.41998,24.946501 -0.908551,3.372866 -1.78653,6.752635 -2.557683,10.159592 0,0 -2.17102,1.043069 -2.17102,1.043069 l 0,0 c 0.857632,-3.441396 1.795335,-6.860176 2.769976,-10.270348 2.324907,-8.275612 4.774477,-16.530617 6.49617,-24.958857 0.24399,-1.423 0.510251,-2.84236 0.731969,-4.269 1.055109,-6.789069 1.594455,-13.640429 2.219497,-20.477846 0.282712,-2.67408 0.529288,-5.366587 1.174816,-7.9836841 0,0 2.393866,-1.1331154 2.393866,-1.1331154 z"
       inkscape:connector-curvature="0"
       transform="translate(0,924.36218)" />
    <path
       style="fill:#005500;fill-opacity:1;stroke:#000000;stroke-width:1;stroke-miterlimit:4;stroke-opacity:1;stroke-dasharray:none"
       id="path3005"
       d="m 94.618494,43.454405 c 0.578464,-0.84017 0.94895,-1.376942 1.556994,-2.267643 1.497248,-2.193266 1.362432,-2.039554 3.135905,-4.485565 1.928127,-2.659313 2.398727,-3.245471 4.399437,-5.873889 4.14696,-5.332981 8.1459,-10.77685 11.96065,-16.351977 0.31954,-0.482266 0.63907,-0.964532 0.95861,-1.446797 0,0 2.23628,-0.976256 2.23628,-0.976256 l 0,0 c -0.34261,0.493452 -0.68521,0.986904 -1.02782,1.480356 -3.94485,5.548325 -7.96668,11.043549 -12.12581,16.433565 -1.80192,2.371374 -2.6306,3.417525 -4.33745,5.837122 -1.521346,2.156644 -2.943307,4.380705 -4.36699,6.602151 0,0 -2.389806,1.048933 -2.389806,1.048933 z"
       inkscape:connector-curvature="0"
       transform="translate(0,924.36218)" />
    <path
       style="fill:#005500;fill-opacity:1;stroke:#000000;stroke-width:1;stroke-miterlimit:4;stroke-opacity:1;stroke-dasharray:none"
       id="path3007"
       d="m 95.71685,41.789731 c 0.302277,0.584836 0.675982,1.124053 0.954751,1.722851 0.843003,1.810773 1.527484,3.702992 2.243837,5.565183 1.510332,3.925119 2.817652,7.923693 4.283552,11.864992 0.52415,1.409261 1.87364,4.87562 2.44196,6.341102 1.29926,3.478339 2.71763,6.911364 4.35951,10.242186 0,0 -2.15487,1.220917 -2.15487,1.220917 l 0,0 c -1.54434,-3.393484 -2.88387,-6.872459 -4.16361,-10.373555 -2.25746,-6.055562 -4.517857,-12.110237 -6.825188,-18.146905 -0.99289,-2.433296 -1.926038,-4.928657 -3.431469,-7.103041 0,0 2.291527,-1.33373 2.291527,-1.33373 z"
       inkscape:connector-curvature="0"
       transform="translate(0,924.36218)" />
    <path
       style="fill:#005500;fill-opacity:1;stroke:#000000;stroke-width:1;stroke-miterlimit:4;stroke-opacity:1;stroke-dasharray:none"
       id="path3009"
       d="m 14.661506,118.42668 c 2.243649,-3.17189 4.176756,-6.54882 6.070655,-9.93645 2.225835,-3.98137 3.715214,-6.78164 5.885599,-10.807517 0.937089,-1.767158 1.877766,-3.532419 2.811267,-5.301476 2.143216,-4.061563 2.996379,-5.668867 5.034296,-9.774274 1.800035,-3.62619 3.502533,-7.294093 5.183193,-10.976404 0.322889,-0.747723 0.648509,-1.494273 0.968666,-2.243171 0.225087,-0.526515 0.443583,-1.055825 0.66705,-1.583029 0.144635,-0.341223 0.274023,-0.689514 0.437253,-1.022242 0.47557,-0.969402 1.780355,-1.260266 2.795365,-1.314904 0.272218,-0.01465 0.10849,0.534322 0.162735,0.801484 0.113862,1.056984 0.171245,1.551299 0.270533,2.659765 0.287904,3.214204 0.100436,1.524468 0.461272,5.0247 0.200422,1.944163 0.416545,3.88668 0.619776,5.830552 0.33112,4.327575 0.735987,8.650828 1.029135,12.981334 0.131807,1.947118 0.229716,3.896382 0.34511,5.844541 0.224205,3.951401 0.382648,7.905671 0.647215,11.854731 0.09951,1.95057 0.358105,3.88703 0.572567,5.8268 0,0 -2.270795,1.18579 -2.270795,1.18579 l 0,0 c -0.176826,-1.95886 -0.397692,-3.91488 -0.489646,-5.88029 -0.238404,-3.97521 -0.336271,-7.95438 -0.500333,-11.932981 -0.316484,-6.282549 -0.718583,-12.563236 -1.356876,-18.822151 -0.465871,-4.459117 -0.976641,-8.914973 -1.600414,-13.354925 -0.319657,-1.457461 -0.352853,-0.64046 1.96755,-2.092355 0.13911,-0.08704 -0.269672,0.200211 -0.356601,0.339391 -0.207022,0.331461 -0.34623,0.70077 -0.51362,1.053907 -0.293323,0.618813 -1.6556,3.570385 -1.81423,3.913498 -2.596367,5.354172 -5.186024,10.71645 -7.931004,15.996569 -0.857093,1.648665 -1.749417,3.278775 -2.624406,4.918012 -0.945543,1.771415 -1.891461,3.54263 -2.837192,5.313946 -0.625595,1.168182 -5.080753,9.483609 -5.750226,10.748309 -0.782824,1.47884 -1.523362,2.9802 -2.327549,4.44753 -0.983057,1.7937 -2.099504,3.52104 -3.167121,5.26511 0,0 -2.389224,1.0362 -2.389224,1.0362 z"
       inkscape:connector-curvature="0"
       transform="translate(0,924.36218)" />
    <path
       style="fill:#005500;fill-opacity:1;stroke:#000000;stroke-width:1;stroke-miterlimit:4;stroke-opacity:1;stroke-dasharray:none"
       id="path3011"
       d="m 25.964427,93.07076 c 2.43313,-0.13276 4.871381,-0.138968 7.303982,-0.286081 0.884216,-0.05347 1.766911,-0.129679 2.650367,-0.194518 0.913885,-0.08785 1.828657,-0.16691 2.741654,-0.263548 0.891876,-0.0944 1.781277,-0.211037 2.67271,-0.309544 3.024455,-0.334215 6.054021,-0.624959 9.083201,-0.912584 1.328045,-0.159483 2.670569,-0.189139 3.997705,-0.356721 0.406591,-0.05134 1.119959,-0.180021 1.531479,-0.251617 0.211602,-0.04681 0.423205,-0.09362 0.634807,-0.140433 0,0 -2.064631,1.566113 -2.064631,1.566113 l 0,0 c -0.210217,0.04146 -0.420435,0.08292 -0.630652,0.124377 -0.509889,0.08255 -1.0195,0.170716 -1.532924,0.229643 -1.297122,0.148875 -2.605282,0.170013 -3.905095,0.285541 -2.086099,0.162168 -4.170584,0.335967 -6.252431,0.547275 -6.633382,0.67329 1.153801,-0.09261 -5.386988,0.591517 -0.91693,0.09591 -1.835286,0.177655 -2.752929,0.266482 -2.263697,0.184641 -2.846879,0.247602 -5.03826,0.370795 -1.718187,0.09659 -3.442394,0.110391 -5.155148,0.292057 0,0 2.103153,-1.558754 2.103153,-1.558754 z"
       inkscape:connector-curvature="0"
       transform="translate(0,924.36218)" />
    <path
       style="fill:#005500;fill-opacity:1;stroke:#000000;stroke-width:1;stroke-miterlimit:4;stroke-opacity:1;stroke-dasharray:none"
       id="path3013"
       d="m 81.871752,86.264194 c -4.108033,3.670125 -7.886809,7.679232 -11.666685,11.679889 -4.286503,4.613837 -8.559434,9.244957 -12.572609,14.101217 -0.724808,0.87708 -1.427518,1.77219 -2.141278,2.65828 -2.901595,3.63583 -5.465626,7.52507 -7.940524,11.45912 0,0 -2.294329,1.00807 -2.294329,1.00807 l 0,0 c 2.606783,-3.95144 5.257768,-7.88296 8.196522,-11.59757 0.723872,-0.89222 1.437752,-1.79264 2.171617,-2.67666 4.027712,-4.85182 8.287998,-9.50387 12.583063,-14.11834 2.495589,-2.644188 4.966564,-5.316989 7.524735,-7.901248 0.965146,-0.974987 1.964702,-1.906467 2.948589,-2.861382 0.261557,-0.253854 0.519042,-0.511868 0.778564,-0.767803 0,0 2.412335,-0.983573 2.412335,-0.983573 z"
       inkscape:connector-curvature="0"
       transform="translate(0,924.36218)" />
    <path
       style="fill:#005500;fill-opacity:1;stroke:#000000;stroke-width:1;stroke-miterlimit:4;stroke-opacity:1;stroke-dasharray:none"
       id="path3015"
       d="m 57.786341,79.776988 c 0.0156,1.921705 0.477785,3.720597 0.980715,5.562447 0.156775,0.497338 0.308661,0.996244 0.470326,1.492015 0.342389,1.049992 0.733353,2.084002 1.063078,3.138039 0.219026,0.700163 0.411049,1.408488 0.616162,2.112852 0.80525,2.765246 0.562866,1.931221 1.354506,4.680275 0.85751,3.139416 1.825936,6.246274 2.898199,9.318664 0.81992,2.25009 1.587714,4.51726 2.444009,6.75384 0.664191,1.62876 1.338311,3.2536 2.075885,4.85061 0.1554,0.32915 0.3108,0.6583 0.4662,0.98745 0,0 -2.20322,1.2463 -2.20322,1.2463 l 0,0 c -0.151852,-0.33107 -0.303704,-0.66214 -0.455556,-0.99321 -0.752043,-1.59652 -1.525799,-3.18629 -2.113291,-4.8534 -0.808304,-2.25744 -1.561394,-4.5343 -2.425496,-6.77144 -1.037807,-3.1007 -1.90227,-6.25621 -2.752388,-9.412555 -0.645165,-2.257926 -1.307657,-4.506919 -2.051026,-6.73493 -0.349789,-1.048379 -0.729701,-2.086544 -1.079631,-3.134876 -0.165782,-0.496655 -0.323402,-0.995998 -0.485102,-1.493997 -0.177686,-0.614721 -0.602181,-2.050369 -0.755818,-2.70345 -0.22033,-0.93658 -0.273482,-1.893273 -0.405949,-2.842971 0,0 2.358397,-1.201663 2.358397,-1.201663 z"
       inkscape:connector-curvature="0"
       transform="translate(0,924.36218)" />
    <path
       style="fill:#005500;fill-opacity:1;stroke:#000000;stroke-width:1;stroke-miterlimit:4;stroke-opacity:1;stroke-dasharray:none"
       id="path3019"
       d="m 91.12118,79.352807 c -0.818846,3.788204 -1.392818,7.627412 -2.012693,11.452318 -0.824834,5.09387 -1.685512,10.183325 -2.678976,15.247325 -0.22769,1.19468 -0.489528,2.38234 -0.734853,3.5734 -4.08e-4,0.002 -0.235803,1.15075 -0.247124,1.25662 -0.01291,0.12071 0.0038,0.24276 0.0057,0.36414 0.529999,0.10079 0.647262,0.13856 1.29209,0.15411 2.140428,0.0516 4.290319,-0.26832 6.406933,-0.53249 2.59809,-0.312 5.18036,-0.74755 7.783155,-1.02223 1.11459,-0.11762 2.03802,-0.18047 3.14895,-0.26518 1.78105,-0.1317 3.56614,-0.18992 5.35149,-0.21706 0,0 -2.10985,1.53504 -2.10985,1.53504 l 0,0 c -1.74623,-0.004 -3.49242,0.0411 -5.23532,0.153 -3.638396,0.25775 -7.250436,0.74127 -10.861173,1.25167 -1.755256,0.23652 -3.504007,0.47216 -5.275004,0.55364 -0.508481,0.0234 -1.670237,0.0803 -2.233859,-0.0799 -0.221182,-0.0628 -0.402558,-0.22234 -0.603837,-0.33351 -0.004,-0.14223 -0.02807,-0.28531 -0.01211,-0.4267 0.04926,-0.43648 0.192868,-0.85708 0.294265,-1.28446 0.286159,-1.20613 0.578411,-2.41088 0.844529,-3.62168 1.095843,-5.06582 2.054689,-10.163807 2.798454,-15.293758 0.411011,-2.598562 0.840844,-5.196247 1.198943,-7.802841 0.08471,-0.616606 0.144962,-1.236425 0.230862,-1.852866 0.02523,-0.181064 0.22508,-1.344022 0.278954,-1.659109 0,0 2.370521,-1.149479 2.370521,-1.149479 z"
       inkscape:connector-curvature="0"
       transform="translate(0,924.36218)" />
    <path
       style="fill:#005500;fill-opacity:1;stroke:#000000;stroke-width:1;stroke-miterlimit:4;stroke-opacity:1;stroke-dasharray:none"
       id="path3021"
       d="m 87.973381,95.438923 c 2.080762,0.0047 4.161511,-0.02365 6.242222,-0.03736 0.765347,-0.005 1.530913,-0.03195 2.29605,-0.01338 0.945193,0.02294 1.888708,0.09192 2.833062,0.137877 5.085115,0.306271 10.121545,1.081034 15.169535,1.727271 1.27968,0.164422 2.56366,0.289169 3.84852,0.403933 0,0 -2.07454,1.474941 -2.07454,1.474941 l 0,0 c -1.25318,-0.14682 -2.50564,-0.299912 -3.75454,-0.480347 -5.00045,-0.718057 -9.99614,-1.531457 -15.049001,-1.785439 -0.962354,-0.02828 -1.924347,-0.07475 -2.887064,-0.08484 -0.772687,-0.0081 -1.545351,0.01842 -2.317988,0.03031 -2.147372,0.03303 -4.295335,0.07425 -6.440646,0.177765 0,0 2.13439,-1.550725 2.13439,-1.550725 z"
       inkscape:connector-curvature="0"
       transform="translate(0,924.36218)" />
    <path
       style="fill:#005500;fill-opacity:1;stroke:#000000;stroke-width:1;stroke-miterlimit:4;stroke-opacity:1;stroke-dasharray:none"
       id="path3023"
       d="m 91.069681,81.870034 c 1.9312,-0.0076 3.855614,0.09132 5.777615,0.272288 0.378201,0.04459 0.756445,0.0888 1.134602,0.133757 0.716549,0.08518 1.342085,0.148195 2.049542,0.283623 0.9514,0.182128 1.88738,0.451699 2.82132,0.705327 1.73742,0.477052 3.4721,0.964638 5.22303,1.391396 1.51945,0.406441 3.07784,0.616759 4.64335,0.732337 1.25812,0.04467 2.51418,0.129225 3.77194,0.182884 1.01059,0.0076 2.0167,0.07159 3.0244,0.140118 0,0 -2.1268,1.52254 -2.1268,1.52254 l 0,0 c -1.00087,-0.07256 -2.00216,-0.116538 -3.00523,-0.145747 -1.25634,-0.059 -2.51197,-0.133571 -3.76803,-0.196873 -1.57065,-0.135391 -3.129,-0.380043 -4.65684,-0.775322 -1.74144,-0.451529 -3.47578,-0.930288 -5.21073,-1.405944 -0.92678,-0.253201 -1.852852,-0.511461 -2.798371,-0.687516 -0.681101,-0.126821 -1.339622,-0.203342 -2.02765,-0.286577 -0.3752,-0.04539 -0.750755,-0.0878 -1.126132,-0.131702 -1.946469,-0.171126 -3.899183,-0.253218 -5.853416,-0.188943 0,0 2.1274,-1.545646 2.1274,-1.545646 z"
       inkscape:connector-curvature="0"
       transform="translate(0,924.36218)" />
  </g>
</svg>
